<?xml version="1.0" standalone="no"?>
<!DOCTYPE svg PUBLIC "-//W3C//DTD SVG 20010904//EN"
 "http://www.w3.org/TR/2001/REC-SVG-20010904/DTD/svg10.dtd">
<svg version="1.0" xmlns="http://www.w3.org/2000/svg"
 width="300.000000pt" height="283.000000pt" viewBox="0 0 300.000000 283.000000" 
 style="background-color:rgba(0,0,0,.125);"
 preserveAspectRatio="xMidYMid meet">
<metadata>
Created by potrace 1.10, written by Peter Selinger 2001-2011
</metadata>
<g transform="translate(0.000000,283.000000) scale(0.100000,-0.100000)"
fill="#999" stroke="none">
<path d="M606 2161 c-15 -10 -37 -32 -47 -47 -18 -28 -19 -59 -19 -685 l0
-656 23 -34 c49 -74 -12 -70 982 -67 l890 3 33 23 c65 47 62 16 62 727 0 717
2 694 -65 735 -32 20 -47 20 -931 20 -864 0 -900 -1 -928 -19z m1832 -15 c15
-8 36 -24 47 -36 20 -22 20 -36 20 -679 0 -640 0 -657 -20 -683 -11 -15 -33
-32 -50 -38 -44 -16 -1775 -14 -1809 2 -14 6 -34 23 -43 37 -17 24 -18 74 -20
676 l-2 650 26 33 c14 19 35 37 47 42 11 5 416 9 899 9 735 1 882 -1 905 -13z"/>
<path d="M783 2062 c-67 -2 -105 -7 -112 -15 -18 -22 -10 -1211 8 -1230 9 -10
1703 -9 1713 1 4 4 10 279 14 612 6 531 5 607 -8 617 -11 10 -185 13 -764 15
-412 2 -795 2 -851 0z m1602 -390 l0 -369 -45 38 c-211 177 -527 227 -802 126
-102 -37 -175 -84 -255 -164 l-72 -73 -63 16 c-125 32 -320 3 -420 -62 -21
-13 -40 -24 -43 -24 -3 0 -5 198 -5 440 l0 440 853 0 852 0 0 -368z m-375
-197 c98 -23 228 -83 293 -137 32 -26 65 -48 73 -48 12 0 14 -39 14 -235 l0
-235 -855 0 -855 0 0 166 c0 127 3 165 12 162 7 -3 41 10 75 28 34 19 74 36
87 38 14 3 30 7 36 11 11 7 214 8 245 1 11 -2 33 -9 48 -15 26 -10 32 -7 104
64 43 41 80 75 84 75 4 0 14 6 21 14 38 37 203 103 292 116 89 13 258 10 326
-5z"/>
<path d="M1054 1810 c-139 -31 -193 -200 -96 -304 110 -118 313 -39 315 122 2
115 -109 207 -219 182z m113 -39 c61 -28 79 -70 74 -178 0 -18 -12 -45 -28
-63 -42 -50 -100 -67 -168 -49 -67 18 -96 50 -109 121 -24 133 104 226 231
169z"/>
</g>
</svg>
